<?xml version="1.0" standalone="no"?><!DOCTYPE svg PUBLIC "-//W3C//DTD SVG 1.1//EN" "http://www.w3.org/Graphics/SVG/1.1/DTD/svg11.dtd"><svg t="1553139065986" class="icon" style="" viewBox="0 0 1024 1024" version="1.1" xmlns="http://www.w3.org/2000/svg" p-id="4418" xmlns:xlink="http://www.w3.org/1999/xlink" width="200" height="200"><defs><style type="text/css"></style></defs><path d="M721.8 877.6H140.6c-26.1 0-47.5-21.4-47.5-47.5V131.9c0-26.1 21.4-47.5 47.5-47.5h581.3c26.1 0 47.5 21.4 47.5 47.5v698.2c0 26.1-21.4 47.5-47.6 47.5z" fill="#D9E4F5" p-id="4419"></path><path d="M721.8 84.4H140.6c-26.1 0-47.5 21.4-47.5 47.5v21.6h575.2c17.6 0 32 14.4 32 32v692.1h21.6c26.1 0 47.5-21.4 47.5-47.5V131.9c0-26.1-21.4-47.5-47.6-47.5z" fill="#C5D6F6" p-id="4420"></path><path d="M721.8 897H140.6c-36.9 0-66.9-30-66.9-66.9V131.9c0-36.9 30-66.9 66.9-66.9h581.3c36.9 0 66.9 30 66.9 66.9v698.2c-0.1 36.9-30.1 66.9-67 66.9zM140.6 103.8c-15.5 0-28.2 12.6-28.2 28.2v698.2c0 15.5 12.6 28.2 28.2 28.2h581.3c15.5 0 28.2-12.6 28.2-28.2V131.9c0-15.5-12.6-28.2-28.2-28.2H140.6z" fill="#9BB3D8" p-id="4421"></path><path d="M210.2 267.8m-25.4 0a25.4 25.4 0 1 0 50.8 0 25.4 25.4 0 1 0-50.8 0Z" fill="#FFFFFF" p-id="4422"></path><path d="M606.9 293.2H318.1c-14 0-25.4-11.4-25.4-25.4 0-14 11.4-25.4 25.4-25.4h288.8c14 0 25.4 11.4 25.4 25.4 0 14-11.4 25.4-25.4 25.4z" fill="#FFFFFF" p-id="4423"></path><path d="M210.2 403.6m-25.4 0a25.4 25.4 0 1 0 50.8 0 25.4 25.4 0 1 0-50.8 0Z" fill="#FFFFFF" p-id="4424"></path><path d="M606.9 429H318.1c-14 0-25.4-11.4-25.4-25.4 0-14 11.4-25.4 25.4-25.4h288.8c14 0 25.4 11.4 25.4 25.4 0 13.9-11.4 25.4-25.4 25.4z" fill="#FFFFFF" p-id="4425"></path><path d="M210.2 539.3m-25.4 0a25.4 25.4 0 1 0 50.8 0 25.4 25.4 0 1 0-50.8 0Z" fill="#FFFFFF" p-id="4426"></path><path d="M606.9 564.8H318.1c-14 0-25.4-11.4-25.4-25.4 0-14 11.4-25.4 25.4-25.4h288.8c14 0 25.4 11.4 25.4 25.4 0 13.9-11.4 25.4-25.4 25.4z" fill="#FFFFFF" p-id="4427"></path><path d="M210.2 675.1m-25.4 0a25.4 25.4 0 1 0 50.8 0 25.4 25.4 0 1 0-50.8 0Z" fill="#FFFFFF" p-id="4428"></path><path d="M606.9 700.6H318.1c-14 0-25.4-11.4-25.4-25.4 0-14 11.4-25.4 25.4-25.4h288.8c14 0 25.4 11.4 25.4 25.4 0 13.9-11.4 25.4-25.4 25.4z" fill="#FFFFFF" p-id="4429"></path><path d="M732 740.6m-199 0a199 199 0 1 0 398 0 199 199 0 1 0-398 0Z" fill="#D9E4F5" p-id="4430"></path><path d="M732 959c-120.4 0-218.3-97.9-218.3-218.3S611.6 522.3 732 522.3s218.3 97.9 218.3 218.3S852.4 959 732 959z m0-397.9c-99 0-179.6 80.6-179.6 179.6S633 920.2 732 920.2s179.6-80.6 179.6-179.6S831 561.1 732 561.1z" fill="#9BB3D8" p-id="4431"></path><path d="M799.8 827.8c-5 0-9.9-1.9-13.7-5.7L650.5 686.6c-7.6-7.6-7.6-19.8 0-27.4 7.6-7.6 19.8-7.6 27.4 0l135.6 135.6c7.6 7.6 7.6 19.8 0 27.4-3.8 3.7-8.8 5.6-13.7 5.6z" fill="#FFFFFF" p-id="4432"></path><path d="M664.2 827.8c-5 0-9.9-1.9-13.7-5.7-7.6-7.6-7.6-19.8 0-27.4l135.6-135.6c7.6-7.6 19.8-7.6 27.4 0 7.6 7.6 7.6 19.8 0 27.4L677.9 822.1c-3.8 3.8-8.7 5.7-13.7 5.7z" fill="#FFFFFF" p-id="4433"></path></svg>