<?xml version="1.0" standalone="no"?><!DOCTYPE svg PUBLIC "-//W3C//DTD SVG 1.1//EN" "http://www.w3.org/Graphics/SVG/1.1/DTD/svg11.dtd"><svg t="1553139062764" class="icon" style="" viewBox="0 0 1024 1024" version="1.1" xmlns="http://www.w3.org/2000/svg" p-id="4295" xmlns:xlink="http://www.w3.org/1999/xlink" width="200" height="200"><defs><style type="text/css"></style></defs><path d="M722.5 879.5H139.4c-26.2 0-47.7-21.5-47.7-47.7V131.6c0-26.2 21.5-47.7 47.7-47.7h583.1c26.2 0 47.7 21.5 47.7 47.7v700.3c0 26.2-21.5 47.6-47.7 47.6z" fill="#D9E4F5" p-id="4296"></path><path d="M722.5 83.9H139.4c-26.2 0-47.7 21.5-47.7 47.7v21.7h577c17.7 0 32.1 14.4 32.1 32.1v694.2h21.7c26.2 0 47.7-21.5 47.7-47.7V131.6c0-26.3-21.5-47.7-47.7-47.7z" fill="#C5D6F6" p-id="4297"></path><path d="M722.5 899H139.4c-37 0-67.1-30.1-67.1-67.1V131.5c0-37 30.1-67.1 67.1-67.1h583.1c37 0 67.1 30.1 67.1 67.1v700.3c0 37.1-30.1 67.2-67.1 67.2zM139.4 103.3c-15.6 0-28.3 12.7-28.3 28.2v700.3c0 15.6 12.7 28.3 28.3 28.3h583.1c15.6 0 28.3-12.7 28.3-28.3V131.5c0-15.6-12.7-28.2-28.3-28.2H139.4z" fill="#9BB3D8" p-id="4298"></path><path d="M209.3 267.8m-25.5 0a25.5 25.5 0 1 0 51 0 25.5 25.5 0 1 0-51 0Z" fill="#FFFFFF" p-id="4299"></path><path d="M607.2 293.3H317.5c-14 0-25.5-11.5-25.5-25.5s11.5-25.5 25.5-25.5h289.7c14 0 25.5 11.5 25.5 25.5 0 14.1-11.5 25.5-25.5 25.5z" fill="#FFFFFF" p-id="4300"></path><path d="M209.3 404m-25.5 0a25.5 25.5 0 1 0 51 0 25.5 25.5 0 1 0-51 0Z" fill="#FFFFFF" p-id="4301"></path><path d="M607.2 429.5H317.5c-14 0-25.5-11.5-25.5-25.5s11.5-25.5 25.5-25.5h289.7c14 0 25.5 11.5 25.5 25.5 0 14.1-11.5 25.5-25.5 25.5z" fill="#FFFFFF" p-id="4302"></path><path d="M209.3 540.2m-25.5 0a25.5 25.5 0 1 0 51 0 25.5 25.5 0 1 0-51 0Z" fill="#FFFFFF" p-id="4303"></path><path d="M607.2 565.7H317.5c-14 0-25.5-11.5-25.5-25.5s11.5-25.5 25.5-25.5h289.7c14 0 25.5 11.5 25.5 25.5 0 14.1-11.5 25.5-25.5 25.5z" fill="#FFFFFF" p-id="4304"></path><path d="M209.3 676.4m-25.5 0a25.5 25.5 0 1 0 51 0 25.5 25.5 0 1 0-51 0Z" fill="#FFFFFF" p-id="4305"></path><path d="M607.2 701.9H317.5c-14 0-25.5-11.5-25.5-25.5s11.5-25.5 25.5-25.5h289.7c14 0 25.5 11.5 25.5 25.5 0 14.1-11.5 25.5-25.5 25.5z" fill="#FFFFFF" p-id="4306"></path><path d="M732.7 740.5m-199.6 0a199.6 199.6 0 1 0 399.2 0 199.6 199.6 0 1 0-399.2 0Z" fill="#D9E4F5" p-id="4307"></path><path d="M732.7 959.6c-120.8 0-219-98.2-219-219s98.2-219 219-219 219 98.2 219 219-98.3 219-219 219z m0-399.2c-99.3 0-180.1 80.8-180.1 180.1s80.8 180.1 180.1 180.1 180.1-80.8 180.1-180.1S832 560.4 732.7 560.4z" fill="#9BB3D8" p-id="4308"></path><path d="M711.9 814.1c-5 0-9.9-1.9-13.7-5.7l-66.7-66.7c-7.6-7.6-7.6-19.9 0-27.5 7.6-7.6 19.9-7.6 27.5 0l66.7 66.7c7.6 7.6 7.6 19.9 0 27.5-3.8 3.8-8.8 5.7-13.8 5.7z" fill="#FFFFFF" p-id="4309"></path><path d="M711.9 814.1c-5 0-9.9-1.9-13.7-5.7-7.6-7.6-7.6-19.9 0-27.5l108.2-108.2c7.6-7.6 19.9-7.6 27.5 0 7.6 7.6 7.6 19.9 0 27.5L725.7 808.4c-3.8 3.8-8.8 5.7-13.8 5.7z" fill="#FFFFFF" p-id="4310"></path></svg>